<!-- Copyright © 2015 MODULUS Sp. z o. o. / FUTURAMO™ -->
<svg xmlns="http://www.w3.org/2000/svg" x="0px" y="0px" width="64px" height="64px" viewBox="0 0 32 32">
	<path fill="#FF8800"
		  d="M2,26.008C2,29.7,6.789,32,12.466,32c6.471,0,10.045-3.677,10.045-7.369c0-2.96-0.874-4.739-3.575-6.648 c-0.924-0.654-2.69-2.245-2.69-3.18c0-1.095,0.312-1.635,1.962-2.924c1.69-1.321,2.647-2.22,2.647-4.381 c0-1.136-0.337-4.118-1.534-5.201h1.71L23.329,0c0,0-7.667,0-10.223,0C8.524,0,4.211,2.963,4.211,6.985 c0,4.11,3.536,7.279,8.198,7.279c0.325,0,1.127-0.086,1.435-0.108c-0.111,2.889,1.781,4.403,2.281,4.625 c-0.536-0.238-2.406-0.563-3.906-0.563C6.543,18.219,2,22.259,2,26.008z M12.968,12.386c-2.906-0.087-6.037-1.474-6.426-5.303 c-0.333-3.277,3.299-5.726,6.204-5.64c2.905,0.087,5.441,1.294,5.943,5.11C19.191,10.371,15.873,12.473,12.968,12.386z M20.3,25.053 c0.025,2.427-1.697,4.898-6.925,5.238c-4.145,0.269-8.104-2.241-8.104-5.4c0-3.096,3.88-4.562,8.033-4.495"></path>
</svg>